<?xml version="1.0" encoding="utf-8"?>
<!-- Generator: Adobe Illustrator 17.1.0, SVG Export Plug-In . SVG Version: 6.00 Build 0)  -->
<!DOCTYPE svg PUBLIC "-//W3C//DTD SVG 1.1//EN" "http://www.w3.org/Graphics/SVG/1.1/DTD/svg11.dtd">
<svg version="1.1" id="Layer_1" xmlns="http://www.w3.org/2000/svg" xmlns:xlink="http://www.w3.org/1999/xlink" x="0px" y="0px"
	 width="20px" height="20px" viewBox="0 0 20 20" style="enable-background:new 0 0 20 20;" xml:space="preserve">
<path style="fill:#0B0C0C;" d="M15.2,9.7L7.8,17c-0.6,0.6-1.4,0.9-2.2,0.9S4,17.6,3.4,17c-1.2-1.2-1.2-3.2,0-4.4l9-9.5
	c0.5-0.5,1-0.7,1.7-0.7s1.2,0.2,1.7,0.7c0.9,0.9,0.9,2.4,0,3.3l-8.1,8c-0.2,0.2-0.5,0.4-0.8,0.4c-0.3,0-0.6-0.1-0.8-0.4
	c-0.2-0.2-0.4-0.5-0.4-0.8c0-0.3,0.1-0.6,0.4-0.8l6.2-6.1l-0.8-0.8L5.1,12c-0.9,0.9-0.9,2.4,0,3.3c0.5,0.5,1,0.7,1.6,0.7
	s1.2-0.2,1.6-0.7l8.1-8c1.4-1.4,1.4-3.5,0-4.9c-0.7-0.7-1.6-1-2.4-1c-0.9,0-1.8,0.3-2.5,1l-9,9.5c-1.7,1.7-1.7,4.3,0,6
	c0.8,0.8,1.9,1.2,3,1.2s2.2-0.4,3-1.2l7.4-7.3L15.2,9.7z"/>
</svg>
