<?xml version="1.0" encoding="UTF-8" standalone="no"?>
<svg width="15px" height="15px" viewBox="0 0 15 15" version="1.1" xmlns="http://www.w3.org/2000/svg" xmlns:xlink="http://www.w3.org/1999/xlink" xmlns:sketch="http://www.bohemiancoding.com/sketch/ns">
    <!-- Generator: Sketch 3.0.3 (7891) - http://www.bohemiancoding.com/sketch -->
    <title>internal-search</title>
    <desc>Created with Sketch.</desc>
    <defs></defs>
    <g id="Page-1" stroke="none" stroke-width="1" fill="none" fill-rule="evenodd" sketch:type="MSPage">
        <g id="Artboard-2" sketch:type="MSArtboardGroup" transform="translate(-19.000000, -67.000000)" fill="#FFFFFF">
            <g id="internal-search" sketch:type="MSLayerGroup" transform="translate(19.000000, 67.000000)">
                <path d="M11.0114186,9.29684562 C11.6361039,8.35031627 12,7.21716756 12,6.0005062 C12,2.69197671 9.30903569,0 6.0005062,0 C2.69197671,0 0,2.69197671 0,6.0005062 C0,9.30903569 2.69197671,12 6.0005062,12 C7.21720627,12 8.35038839,11.6360808 9.29693597,11.0113589 C9.31518537,11.0323152 9.33427596,11.0527806 9.35420775,11.0727101 L12.9270447,14.6451244 C13.3993217,15.1182919 14.1725688,15.1182919 14.6457923,14.6451244 C15.1180692,14.1729033 15.1180692,13.3997476 14.6457923,12.9265802 L11.0729553,9.35416585 C11.0529634,9.33421631 11.0324361,9.31510957 11.0114186,9.29684562 Z M6,10 C8.209139,10 10,8.209139 10,6 C10,3.790861 8.209139,2 6,2 C3.790861,2 2,3.790861 2,6 C2,8.209139 3.790861,10 6,10 Z" id="Fill-1" sketch:type="MSShapeGroup"></path>
            </g>
        </g>
    </g>
</svg>