<?xml version="1.0" encoding="utf-8"?>
<!-- Generator: Adobe Illustrator 21.1.0, SVG Export Plug-In . SVG Version: 6.00 Build 0)  -->
<svg version="1.1" baseProfile="tiny" id="Layer_1" xmlns:sketch="http://www.bohemiancoding.com/sketch/ns"
	 xmlns="http://www.w3.org/2000/svg" xmlns:xlink="http://www.w3.org/1999/xlink" x="0px" y="0px" width="25px" height="25px"
	 viewBox="0 0 25 25" xml:space="preserve">
<g id="Layer_2">
</g>
<title>selfserve-important</title>
<desc>Created with Sketch.</desc>
<g>
	<path fill="#FFFFFF" d="M12.5,5.3c-1.3,0-2.3,1-2.3,2.3c0,1.3,1,2.3,2.3,2.3c1.2,0,2.3-1,2.3-2.3C14.7,6.3,13.7,5.3,12.5,5.3z"/>
	<polygon fill="#FFFFFF" points="10.8,11.3 10.8,20.3 14.2,20.3 14.2,11.3 	"/>
	<path fill="#005EA5" d="M12.5,0C5.6,0,0,5.6,0,12.5s5.6,12.5,12.5,12.5s12.5-5.6,12.5-12.5S19.4,0,12.5,0z M10.8,20.3v-9h3.4l0,9
		H10.8z M12.5,9.8c-1.2,0-2.3-1-2.3-2.3c0-1.2,1-2.3,2.3-2.3c1.2,0,2.3,1,2.3,2.3C14.7,8.8,13.7,9.8,12.5,9.8z"/>
</g>
</svg>
